<svg width="1920" height="649" viewBox="0 0 1920 649" fill="none" xmlns="http://www.w3.org/2000/svg">
<g clip-path="url(#clip0_1_3)">
<path d="M123.06 172.24H40.53L28.56 131.92H255.36V172.24H166.53V520H123.06V172.24ZM274.792 310.21L256.522 281.86C275.002 266.32 295.372 254.77 317.632 247.21C340.312 239.23 363.202 233.56 386.302 230.2L393.232 268C373.072 270.94 356.902 274.51 344.722 278.71C332.542 282.49 322.672 286.48 315.112 290.68V520H274.792V310.21ZM452.629 230.2C470.269 230.2 487.909 231.88 505.549 235.24C523.189 238.18 539.359 243.64 554.059 251.62C568.759 259.18 580.519 270.31 589.339 285.01C598.159 299.29 602.569 317.77 602.569 340.45V466.45L619.579 495.43C600.259 506.35 580.939 514.33 561.619 519.37C542.719 523.99 525.289 526.3 509.329 526.3C488.749 526.3 472.159 523.78 459.559 518.74C446.959 513.28 437.089 507.19 429.949 500.47C423.229 493.33 417.349 484.51 412.309 474.01C407.269 463.09 404.749 450.91 404.749 437.47C404.749 416.47 409.159 399.25 417.979 385.81C426.799 371.95 438.559 361.24 453.259 353.68C468.379 346.12 485.179 340.87 503.659 337.93C522.559 334.57 542.089 332.89 562.249 332.89C561.409 319.03 557.209 308.11 549.649 300.13C542.509 291.73 533.269 285.43 521.929 281.23C511.009 277.03 499.249 274.3 486.649 273.04C474.049 271.36 461.659 270.31 449.479 269.89L452.629 230.2ZM562.249 370.69C552.169 370.69 540.619 371.32 527.599 372.58C514.579 373.84 501.979 376.57 489.799 380.77C477.619 384.55 467.539 390.64 459.559 399.04C451.579 407.44 447.589 418.78 447.589 433.06C447.589 442.72 449.059 450.91 451.999 457.63C454.939 463.93 458.299 468.76 462.079 472.12C468.799 478.84 476.359 483.25 484.759 485.35C493.579 487.45 502.189 488.5 510.589 488.5C520.669 488.5 529.909 487.45 538.309 485.35C546.709 483.25 554.689 480.73 562.249 477.79V370.69ZM893.186 497.32C880.166 504.88 864.626 511.6 846.566 517.48C828.506 523.36 808.556 526.3 786.716 526.3C758.156 526.3 735.056 519.16 717.416 504.88C699.776 490.6 686.966 472.33 678.986 450.07C671.426 427.39 667.646 403.45 667.646 378.25C667.646 353.05 671.846 329.32 680.246 307.06C689.066 284.38 702.086 265.9 719.306 251.62C736.526 237.34 758.156 230.2 784.196 230.2C793.856 230.2 802.676 230.83 810.656 232.09C818.636 233.35 827.036 235.24 835.856 237.76V147.04L823.256 107.35H876.176V465.19L893.186 497.32ZM835.856 278.08C831.236 275.98 824.936 273.88 816.956 271.78C809.396 269.26 800.576 268 790.496 268C769.916 268 753.746 273.67 741.986 285.01C730.226 296.35 721.826 310.63 716.786 327.85C711.746 344.65 709.226 361.45 709.226 378.25C709.226 395.05 711.326 412.06 715.526 429.28C720.146 446.08 728.336 460.15 740.096 471.49C751.856 482.83 768.236 488.5 789.236 488.5C806.876 488.5 822.416 485.14 835.856 478.42V278.08ZM950.801 353.05C950.801 345.07 951.011 335.62 951.431 324.7C951.851 313.78 953.741 302.44 957.101 290.68C960.881 278.92 967.391 268 976.631 257.92C988.391 245.32 1001.2 237.55 1015.06 234.61C1029.34 231.67 1041.73 230.2 1052.23 230.2C1063.15 230.2 1075.54 231.67 1089.4 234.61C1103.26 237.55 1116.07 245.32 1127.83 257.92C1137.07 268 1143.37 278.92 1146.73 290.68C1150.51 302.44 1152.61 313.78 1153.03 324.7C1153.45 335.62 1153.66 345.07 1153.66 353.05V455.74L1175.08 481.57C1158.28 496.27 1139.8 507.4 1119.64 514.96C1099.48 522.52 1077.01 526.3 1052.23 526.3C1027.87 526.3 1007.29 523.36 990.491 517.48C974.111 511.18 960.881 504.67 950.801 497.95V353.05ZM991.121 472.12C1000.78 478.84 1011.07 483.25 1021.99 485.35C1032.91 487.45 1042.99 488.5 1052.23 488.5C1061.47 488.5 1071.55 487.45 1082.47 485.35C1093.81 483.25 1104.1 478.84 1113.34 472.12V351.79C1113.34 342.55 1112.71 332.05 1111.45 320.29C1110.61 308.53 1107.04 298.24 1100.74 289.42C1097.8 285.22 1092.55 280.6 1084.99 275.56C1077.43 270.52 1066.51 268 1052.23 268C1037.95 268 1027.03 270.52 1019.47 275.56C1012.33 280.6 1007.08 285.22 1003.72 289.42C997.421 298.24 993.641 308.53 992.381 320.29C991.541 332.05 991.121 342.55 991.121 351.79V472.12ZM1222.12 353.05C1222.12 345.07 1222.33 335.62 1222.75 324.7C1223.17 313.78 1225.06 302.44 1228.42 290.68C1232.2 278.92 1238.71 268 1247.95 257.92C1259.71 245.32 1272.52 237.55 1286.38 234.61C1300.66 231.67 1313.05 230.2 1323.55 230.2C1334.47 230.2 1346.86 231.67 1360.72 234.61C1374.58 237.55 1387.39 245.32 1399.15 257.92C1408.39 268 1414.69 278.92 1418.05 290.68C1421.83 302.44 1423.93 313.78 1424.35 324.7C1424.77 335.62 1424.98 345.07 1424.98 353.05V455.74L1446.4 481.57C1429.6 496.27 1411.12 507.4 1390.96 514.96C1370.8 522.52 1348.33 526.3 1323.55 526.3C1299.19 526.3 1278.61 523.36 1261.81 517.48C1245.43 511.18 1232.2 504.67 1222.12 497.95V353.05ZM1262.44 472.12C1272.1 478.84 1282.39 483.25 1293.31 485.35C1304.23 487.45 1314.31 488.5 1323.55 488.5C1332.79 488.5 1342.87 487.45 1353.79 485.35C1365.13 483.25 1375.42 478.84 1384.66 472.12V351.79C1384.66 342.55 1384.03 332.05 1382.77 320.29C1381.93 308.53 1378.36 298.24 1372.06 289.42C1369.12 285.22 1363.87 280.6 1356.31 275.56C1348.75 270.52 1337.83 268 1323.55 268C1309.27 268 1298.35 270.52 1290.79 275.56C1283.65 280.6 1278.4 285.22 1275.04 289.42C1268.74 298.24 1264.96 308.53 1263.7 320.29C1262.86 332.05 1262.44 342.55 1262.44 351.79V472.12ZM1493.44 353.05C1493.44 345.07 1493.65 335.62 1494.07 324.7C1494.49 313.78 1496.38 302.44 1499.74 290.68C1503.52 278.92 1510.03 268 1519.27 257.92C1531.03 245.32 1543.84 237.55 1557.7 234.61C1571.98 231.67 1584.37 230.2 1594.87 230.2C1605.79 230.2 1618.18 231.67 1632.04 234.61C1645.9 237.55 1658.71 245.32 1670.47 257.92C1679.71 268 1686.01 278.92 1689.37 290.68C1693.15 302.44 1695.25 313.78 1695.67 324.7C1696.09 335.62 1696.3 345.07 1696.3 353.05V455.74L1717.72 481.57C1700.92 496.27 1682.44 507.4 1662.28 514.96C1642.12 522.52 1619.65 526.3 1594.87 526.3C1570.51 526.3 1549.93 523.36 1533.13 517.48C1516.75 511.18 1503.52 504.67 1493.44 497.95V353.05ZM1533.76 472.12C1543.42 478.84 1553.71 483.25 1564.63 485.35C1575.55 487.45 1585.63 488.5 1594.87 488.5C1604.11 488.5 1614.19 487.45 1625.11 485.35C1636.45 483.25 1646.74 478.84 1655.98 472.12V351.79C1655.98 342.55 1655.35 332.05 1654.09 320.29C1653.25 308.53 1649.68 298.24 1643.38 289.42C1640.44 285.22 1635.19 280.6 1627.63 275.56C1620.07 270.52 1609.15 268 1594.87 268C1580.59 268 1569.67 270.52 1562.11 275.56C1554.97 280.6 1549.72 285.22 1546.36 289.42C1540.06 298.24 1536.28 308.53 1535.02 320.29C1534.18 332.05 1533.76 342.55 1533.76 351.79V472.12ZM1770.43 310.21L1752.16 281.86C1770.64 266.32 1791.01 254.77 1813.27 247.21C1835.95 239.23 1858.84 233.56 1881.94 230.2L1888.87 268C1868.71 270.94 1852.54 274.51 1840.36 278.71C1828.18 282.49 1818.31 286.48 1810.75 290.68V520H1770.43V310.21Z" fill="white"/>
</g>
<defs>
<clipPath id="clip0_1_3">
<rect width="1920" height="649" fill="white"/>
</clipPath>
</defs>
</svg>
